# xmcd
# Track frame offsets:
# 150
# 31293
# 50919
# 68863
# 89346
# 115896
# 145041
# 166371
# 179868
# 197528
#
# Disc length: 2928 seconds
# Revision: 0
# Processed by: cddbd v1.5.2PL0 Copyright (c) Steve Scherf et al.
# Submitted via: VisiTrax 2.11.3.279 - For more info visit www.synapsa.com
#
DISCID=910b6e0a
DTITLE=Bare Bones Boogie Band - Bare Bones Boogie Band 2
DYEAR=2012
DGENRE=Rock
TTITLE0=Fallin' for foolin'
TTITLE1=Midnight O2
TTITLE2=Sittin' here sewin'
TTITLE3=Mean old man
TTITLE4=Wings
TTITLE5=Second-hand hand me-down
TTITLE6=Love in vain
TTITLE7=A little bit more
TTITLE8=Travellin' light
TTITLE9=My man loves my van
EXTD=Submitted by Bruce Dickinson
EXTT0=
EXTT1=
EXTT2=
EXTT3=
EXTT4=
EXTT5=
EXTT6=
EXTT7=
EXTT8=
EXTT9=
PLAYORDER=
